<?xml version="1.0" encoding="utf-8"?>
<!-- Generator: Adobe Illustrator 16.0.0, SVG Export Plug-In . SVG Version: 6.00 Build 0)  -->
<!DOCTYPE svg PUBLIC "-//W3C//DTD SVG 1.1//EN" "http://www.w3.org/Graphics/SVG/1.1/DTD/svg11.dtd">
<svg version="1.1" id="Layer_1" xmlns="http://www.w3.org/2000/svg" xmlns:xlink="http://www.w3.org/1999/xlink" x="0px" y="0px"
	 width="682px" height="459px" viewBox="0 0 682 459" enable-background="new 0 0 682 459" xml:space="preserve">
<g>
	<g>
		<path fill="#262D35" d="M178.803,288.136c8.761,0,13.142,4.462,13.142,13.384v5.482c0,2.527-0.524,4.65-1.572,6.369
			c-1.048,1.721-2.648,3.012-4.797,3.871c4.568,1.611,6.854,5.16,6.854,10.643v6.369c0,8.494-4.408,12.738-13.223,12.738H150.02
			v-58.856H178.803z M156.147,340.945h22.011c5.428,0,8.143-2.553,8.143-7.658v-6.209c0-4.838-2.902-7.256-8.708-7.256h-18.221
			v-5.402h18.221c5.59,0,8.385-2.258,8.385-6.772v-5.16c0-5.536-2.715-8.305-8.143-8.305h-21.688V340.945z"/>
		<path fill="#262D35" d="M225.163,304.986v5.805h-10.32c-5.537,0-8.304,2.877-8.304,8.627v27.574h-5.886v-28.541
			c0-8.977,4.38-13.465,13.142-13.465H225.163z"/>
		<path fill="#262D35" d="M257.653,304.906c8.762,0,13.143,4.488,13.143,13.465v15.156c0,8.979-4.381,13.465-13.143,13.465h-14.834
			c-7.472,0-11.208-3.709-11.208-11.125v-3.307c0-6.234,3.548-9.352,10.643-9.352h19.43v4.756h-17.898
			c-4.354,0-6.53,1.855-6.53,5.563v1.936c0,4.301,2.203,6.451,6.61,6.451h12.82c5.482,0,8.225-2.85,8.225-8.547v-14.432
			c0-5.535-2.662-8.305-7.982-8.305h-24.027v-5.725H257.653z"/>
		<path fill="#262D35" d="M286.194,287.571v9.353h-5.886v-9.353H286.194z M286.194,305.309v41.684h-5.886v-41.684H286.194z"/>
		<path fill="#262D35" d="M323.282,304.906c8.761,0,13.143,4.488,13.143,13.465v28.621h-5.886v-27.654
			c0-5.697-2.796-8.547-8.386-8.547h-19.995v36.201h-5.886v-42.086H323.282z"/>
		<path fill="#262D35" d="M384.557,288.136v6.047h-17.496v52.81h-6.127v-52.81h-17.738v-6.047H384.557z"/>
		<path fill="#262D35" d="M414.791,304.906c7.525,0,11.289,3.709,11.289,11.127v3.385c0,6.182-3.549,9.273-10.643,9.273h-19.512
			v-4.758h17.898c4.354,0,6.531-1.854,6.531-5.563v-1.936c0-4.299-2.205-6.45-6.611-6.45h-12.738c-5.537,0-8.305,2.851-8.305,8.546
			v14.432c0,5.537,2.686,8.305,8.063,8.305h23.945v5.725h-24.672c-8.762,0-13.143-4.486-13.143-13.465v-15.156
			c0-8.977,4.381-13.465,13.143-13.465H414.791z"/>
		<path fill="#262D35" d="M466.633,304.906v5.885h-17.656c-5.592,0-8.387,2.85-8.387,8.547v13.223c0,5.752,2.795,8.627,8.387,8.627
			h17.656v5.805h-18.785c-8.762,0-13.143-4.486-13.143-13.465v-15.156c0-8.977,4.381-13.465,13.143-13.465H466.633z"/>
		<path fill="#262D35" d="M481.387,287.571v17.335h21.125c8.76,0,13.143,4.488,13.143,13.465v28.621h-5.887v-27.654
			c0-5.697-2.795-8.547-8.385-8.547h-19.996v36.201h-5.885v-59.421H481.387z"/>
	</g>
	<g>
		<path fill="#262D35" d="M250.743,360.734v3.748h-16.198c-2.999,0-4.499,1.551-4.499,4.65v3.498c0,2.768,1.35,4.15,4.049,4.15
			h10.748c4.732,0,7.1,2.416,7.1,7.248v5.199c0,5.332-2.617,7.998-7.85,7.998h-17.546v-3.748h17.148c3.031,0,4.549-1.551,4.549-4.65
			v-4.498c0-2.768-1.35-4.15-4.049-4.15h-10.799c-4.733,0-7.099-2.416-7.099-7.248v-4.199c0-5.332,2.616-7.998,7.849-7.998H250.743z
			"/>
		<path fill="#262D35" d="M273.988,371.131c5.432,0,8.148,2.783,8.148,8.35v9.398c0,5.566-2.717,8.348-8.148,8.348h-8.849
			c-5.433,0-8.148-2.781-8.148-8.348v-9.398c0-5.566,2.716-8.35,8.148-8.35H273.988z M260.64,388.279
			c0,3.566,1.732,5.348,5.199,5.348h7.448c3.466,0,5.199-1.781,5.199-5.348v-8.199c0-3.531-1.733-5.299-5.199-5.299h-7.448
			c-3.467,0-5.199,1.768-5.199,5.299V388.279z"/>
		<path fill="#262D35" d="M291.734,360.383v36.844h-3.649v-36.844H291.734z"/>
		<path fill="#262D35" d="M301.432,371.182v17.098c0,3.566,1.717,5.348,5.149,5.348h7.148c3.466,0,5.199-1.781,5.199-5.348v-17.098
			h3.6v17.697c0,5.566-2.717,8.348-8.148,8.348h-8.449c-5.433,0-8.148-2.781-8.148-8.348v-17.697H301.432z"/>
		<path fill="#262D35" d="M335.426,362.633v8.498h5.649v3.25h-5.649v22.846h-3.649v-22.846h-4.899v-3.25h4.899v-8.498H335.426z"/>
		<path fill="#262D35" d="M349.322,360.383v5.799h-3.648v-5.799H349.322z M349.322,371.381v25.846h-3.648v-25.846H349.322z"/>
		<path fill="#262D35" d="M372.219,371.131c5.432,0,8.148,2.783,8.148,8.35v9.398c0,5.566-2.717,8.348-8.148,8.348h-8.848
			c-5.434,0-8.148-2.781-8.148-8.348v-9.398c0-5.566,2.715-8.35,8.148-8.35H372.219z M358.871,388.279
			c0,3.566,1.732,5.348,5.199,5.348h7.449c3.465,0,5.199-1.781,5.199-5.348v-8.199c0-3.531-1.734-5.299-5.199-5.299h-7.449
			c-3.467,0-5.199,1.768-5.199,5.299V388.279z"/>
		<path fill="#262D35" d="M403.063,371.131c5.432,0,8.148,2.783,8.148,8.35v17.746h-3.648V380.08c0-3.531-1.734-5.299-5.199-5.299
			h-12.398v22.445h-3.648v-26.096H403.063z"/>
		<path fill="#262D35" d="M438.057,371.131v3.15H423.26c-2.234,0-3.35,1.033-3.35,3.1v2.049c0,1.9,1.031,2.85,3.1,2.85h10.498
			c3.799,0,5.699,1.783,5.699,5.35v3.799c0,3.867-2.051,5.799-6.15,5.799h-16.447v-3.148h15.498c2.365,0,3.549-1.033,3.549-3.1
			v-2.949c0-1.9-1.016-2.85-3.049-2.85h-10.498c-3.834,0-5.75-1.783-5.75-5.35v-2.949c0-3.832,2-5.75,6-5.75H438.057z"/>
	</g>
	<g>
		<linearGradient id="SVGID_1_" gradientUnits="userSpaceOnUse" x1="225.6445" y1="174.3691" x2="332.248" y2="174.3691">
			<stop  offset="0" style="stop-color:#F4B619"/>
			<stop  offset="1" style="stop-color:#F05523"/>
		</linearGradient>
		<path fill="url(#SVGID_1_)" d="M256.392,199.763c-9.413-17.078,16.028-48.482,62.278-74.122c-0.95,0.516-1.899,1.02-2.853,1.546
			c-58.291,32.139-98.068,71.755-88.844,88.487c8.322,15.092,53.68,6.398,105.274-19.042
			C295.64,211.719,264.092,213.722,256.392,199.763z"/>
		<linearGradient id="SVGID_2_" gradientUnits="userSpaceOnUse" x1="332.6846" y1="121.5166" x2="439.3975" y2="121.5166">
			<stop  offset="0" style="stop-color:#F4B619"/>
			<stop  offset="1" style="stop-color:#F05523"/>
		</linearGradient>
		<path fill="url(#SVGID_2_)" d="M438.068,99.286c-8.328-15.103-53.745-6.387-105.384,19.097
			c42.339-20.423,83.928-27.168,92.474-11.668c5.709,10.358-3.037,27.135-21.119,44.458
			C429.977,129.827,443.936,109.927,438.068,99.286z"/>
	</g>
	<linearGradient id="SVGID_3_" gradientUnits="userSpaceOnUse" x1="296.501" y1="158.1904" x2="360.4541" y2="158.1904">
		<stop  offset="0" style="stop-color:#94C03D"/>
		<stop  offset="1" style="stop-color:#3F9344"/>
	</linearGradient>
	<path fill="url(#SVGID_3_)" d="M336.712,255.76c-18.618,0-33.706-47.052-33.706-105.098c0-58.042,15.088-105.096,33.706-105.096
		c3.979,0,7.803,2.16,11.351,6.115c-4.955-9.381-10.638-14.714-16.675-14.714c-19.267,0-34.887,54.273-34.887,121.224
		s15.62,121.224,34.887,121.224c12.13,0,22.815-21.52,29.066-54.164C354.361,244.105,345.971,255.76,336.712,255.76z"/>
	<linearGradient id="SVGID_4_" gradientUnits="userSpaceOnUse" x1="225.668" y1="152.709" x2="439.7031" y2="152.709">
		<stop  offset="0" style="stop-color:#94C03D"/>
		<stop  offset="1" style="stop-color:#3F9344"/>
	</linearGradient>
	<path fill="url(#SVGID_4_)" d="M415.086,205.229c9.138-16.22-24.456-52.457-75.03-80.942
		c-50.575-28.485-98.978-38.428-108.113-22.209c-1.955,3.471-1.947,7.862-0.24,12.895c-5.745-8.921-7.604-16.488-4.641-21.75
		c9.459-16.789,64.412-3.765,122.744,29.091c58.334,32.851,97.958,73.095,88.503,89.886c-5.953,10.567-29.943,9.318-61.46-1.256
		C396.272,214.887,410.542,213.299,415.086,205.229z"/>
	<linearGradient id="SVGID_5_" gradientUnits="userSpaceOnUse" x1="305.9775" y1="182.8579" x2="380.3854" y2="130.5191">
		<stop  offset="0" style="stop-color:#03AEBB"/>
		<stop  offset="0.0455" style="stop-color:#04A9B7"/>
		<stop  offset="0.6966" style="stop-color:#0C6388"/>
		<stop  offset="1" style="stop-color:#0F4775"/>
	</linearGradient>
	<path fill-rule="evenodd" clip-rule="evenodd" fill="url(#SVGID_5_)" d="M369.706,159.162l-5.843,6.56
		c0.222,0.511,0.146,1.124-0.25,1.565c-0.539,0.607-1.471,0.661-2.076,0.12c-0.607-0.541-0.663-1.472-0.122-2.079
		c0.394-0.442,0.996-0.587,1.526-0.427l6.665-7.48l1.036,0.923c0.091-0.38,0.17-0.765,0.231-1.157
		c0.408-2.662-0.013-5.209-1.11-7.657c-0.083-0.188-0.719-1.41-0.843-1.614c-0.22-0.366-0.452-0.724-0.69-1.074l-3.244,3.641
		l2.416,2.153l-7.585,8.516l-4.297-3.829c-0.512,0.22-1.124,0.146-1.567-0.249c-0.607-0.54-0.661-1.471-0.118-2.079
		c0.54-0.608,1.473-0.66,2.077-0.119c0.443,0.394,0.587,0.993,0.427,1.526l3.377,3.009l5.946-6.673l-2.416-2.153l4.247-4.767
		c-0.684-0.888-1.439-1.713-2.274-2.467l-4.036,4.529c0.224,0.51,0.147,1.122-0.246,1.565c-0.541,0.607-1.471,0.661-2.078,0.12
		c-0.607-0.542-0.663-1.473-0.12-2.079c0.394-0.443,0.994-0.587,1.526-0.427l4.009-4.501c-0.895-0.714-1.837-1.384-2.832-1.943
		c-0.056-0.032-0.115-0.059-0.172-0.091l-13.553,15.213l2.15,1.915c0.508-0.222,1.121-0.146,1.563,0.248
		c0.608,0.54,0.662,1.472,0.122,2.078c-0.543,0.608-1.475,0.661-2.082,0.121c-0.441-0.395-0.587-0.993-0.425-1.526l-3.068-2.736
		l11.001-12.35l-2.838-2.529l-3.371,3.785c0.22,0.511,0.146,1.124-0.247,1.567c-0.542,0.608-1.473,0.661-2.081,0.119
		c-0.607-0.541-0.661-1.471-0.118-2.079c0.394-0.442,0.992-0.587,1.524-0.426l4.193-4.707l3.76,3.349l2.324-2.61
		c-0.708-0.321-1.436-0.607-2.169-0.855c-2.063-0.7-4.205-0.964-6.387-0.847c-0.665,0.036-1.336,0.14-1.897-0.368
		c-0.131-0.118-0.31-0.193-0.471-0.274c-2.184-1.096-4.528-1.531-6.944-1.667c-0.104-0.005-1.419-0.025-1.576-0.026
		c-1.254-0.026-2.498,0.091-3.728,0.354c-0.339,0.071-0.675,0.153-1.006,0.244l-1.349,0.436c-1.614,0.596-3.1,1.449-4.417,2.653
		c-0.1,0.09-0.286,0.14-0.427,0.128c-1.086-0.098-2.161,0.002-3.224,0.202c-2.355,0.441-4.463,1.455-6.401,2.84
		c-2.407,1.724-4.168,3.915-4.914,6.836c-0.027,0.107-0.144,0.229-0.247,0.278c-1.674,0.729-3.091,1.811-4.19,3.251
		c-2.826,3.7-3.772,7.823-2.656,12.379c0.031,0.12,0.022,0.266-0.019,0.383c-0.076,0.201-0.194,0.386-0.29,0.578
		c-0.479,0.993-1.256,3.302-0.733,5.937c0.009,0.043,0.021,0.085,0.027,0.126l10.663-12.038l-3.769-3.336l4.181-4.719
		c-0.222-0.51-0.149-1.122,0.242-1.565c0.54-0.609,1.471-0.665,2.078-0.126c0.61,0.539,0.669,1.471,0.128,2.08
		c-0.394,0.441-0.992,0.588-1.526,0.429l-3.362,3.796l2.848,2.521l10.964-12.381l3.08,2.726c0.51-0.223,1.121-0.149,1.566,0.244
		c0.607,0.539,0.665,1.47,0.125,2.078c-0.539,0.609-1.47,0.666-2.08,0.126c-0.441-0.393-0.589-0.992-0.43-1.524l-2.154-1.909
		l-22.189,25.051c0.375,1.259,0.909,2.452,1.641,3.57l13.412-15.139c-0.226-0.51-0.151-1.122,0.242-1.566
		c0.537-0.609,1.469-0.665,2.076-0.126c0.609,0.54,0.667,1.471,0.128,2.08c-0.394,0.444-0.994,0.589-1.524,0.43l-13.586,15.335
		c0.715,0.874,1.537,1.623,2.463,2.256l14.049-15.862l2.426,2.146l5.925-6.69l-3.386-2.999c-0.509,0.223-1.122,0.148-1.567-0.245
		c-0.607-0.537-0.663-1.469-0.123-2.078c0.541-0.609,1.471-0.664,2.078-0.125c0.445,0.393,0.589,0.993,0.431,1.525l4.308,3.816
		l-7.563,8.536l-2.42-2.145l-13.077,14.764c1.243,0.645,2.594,1.021,4.014,1.159c0.242,0.019,0.36,0.12,0.46,0.323
		c0.006,0.009,0.014,0.02,0.017,0.029l5.044-5.69l2.73,2.418c0.51-0.221,1.121-0.148,1.566,0.245
		c0.607,0.539,0.663,1.47,0.126,2.079c-0.54,0.609-1.471,0.665-2.08,0.125c-0.442-0.392-0.59-0.992-0.431-1.525l-1.809-1.602
		l-4.464,5.04c0.36,0.481,0.776,0.923,1.242,1.323c1.271,1.085,2.754,1.711,4.31,2.168l7.879-8.892l-3.537-3.137
		c-0.512,0.224-1.123,0.15-1.567-0.242c-0.609-0.539-0.665-1.47-0.125-2.078c0.539-0.609,1.467-0.667,2.078-0.126
		c0.443,0.393,0.588,0.992,0.429,1.524l4.463,3.954l-8.281,9.351c0.835,0.196,1.685,0.336,2.563,0.511l11.499-12.978l-5.614-4.971
		l6.642-7.5c-0.223-0.509-0.148-1.123,0.243-1.566c0.54-0.609,1.471-0.664,2.08-0.125c0.606,0.539,0.663,1.47,0.124,2.078
		c-0.392,0.442-0.99,0.589-1.525,0.43l-5.823,6.577l5.61,4.973l-13.706,15.475c-0.199,1.042-0.404,2.166-0.445,2.568
		c-0.075,0.758,0.346,1.221,0.978,1.521c0.779,0.369,1.607,0.497,2.459,0.413c0.728-0.071,1.301-0.39,1.635-1.074
		c0.263-0.541,0.543-1.075,0.796-1.621c1.572-3.392,3.274-6.702,5.6-9.654c0.874-1.109,1.777-2.191,2.677-3.277
		c0.093-0.11,0.281-0.2,0.427-0.204c1.1-0.025,2.206,0.049,3.3-0.05c1.945-0.174,3.816-0.659,5.594-1.51
		c3.128-1.502,5.748-3.566,7.576-6.554c0.113-0.181,0.211-0.274,0.451-0.269c2.708,0.087,5.041-0.805,6.944-2.754
		c1.323-1.353,2.314-2.889,2.697-4.772c0.027-0.139,0.112-0.274,0.199-0.389c0.793-1.105,1.396-2.288,1.823-3.539L369.706,159.162z"
		/>
</g>
</svg>
